<svg width="20" height="20" viewBox="0 0 20 20" fill="none" xmlns="http://www.w3.org/2000/svg">
<path fill-rule="evenodd" clip-rule="evenodd" d="M0.0012207 5.66764C0.0012207 4.23105 0.571904 2.8533 1.58773 1.83748C2.60355 0.821659 3.9813 0.250977 5.41789 0.250977H14.0846C15.5211 0.250977 16.8989 0.821659 17.9147 1.83748C18.9305 2.8533 19.5012 4.23105 19.5012 5.66764V14.3343C19.5012 15.7709 18.9305 17.1487 17.9147 18.1645C16.8989 19.1803 15.5211 19.751 14.0846 19.751H5.41789C3.9813 19.751 2.60355 19.1803 1.58773 18.1645C0.571904 17.1487 0.0012207 15.7709 0.0012207 14.3343V5.66764ZM5.41789 2.41764C4.55593 2.41764 3.72928 2.76005 3.11979 3.36955C2.5103 3.97904 2.16789 4.80569 2.16789 5.66764V14.3343C2.16789 15.1963 2.5103 16.0229 3.11979 16.6324C3.72928 17.2419 4.55593 17.5843 5.41789 17.5843H14.0846C14.9465 17.5843 15.7732 17.2419 16.3827 16.6324C16.9921 16.0229 17.3346 15.1963 17.3346 14.3343V5.66764C17.3346 4.80569 16.9921 3.97904 16.3827 3.36955C15.7732 2.76005 14.9465 2.41764 14.0846 2.41764H5.41789ZM13.648 4.81614C13.648 4.52883 13.7621 4.25328 13.9653 4.05011C14.1684 3.84695 14.444 3.73281 14.7313 3.73281H14.7421C15.0295 3.73281 15.305 3.84695 15.5082 4.05011C15.7113 4.25328 15.8255 4.52883 15.8255 4.81614C15.8255 5.10346 15.7113 5.37901 15.5082 5.58218C15.305 5.78534 15.0295 5.89948 14.7421 5.89948H14.7313C14.444 5.89948 14.1684 5.78534 13.9653 5.58218C13.7621 5.37901 13.648 5.10346 13.648 4.81614ZM9.75122 6.75098C8.88927 6.75098 8.06262 7.09339 7.45312 7.70288C6.84363 8.31237 6.50122 9.13902 6.50122 10.001C6.50122 10.8629 6.84363 11.6896 7.45312 12.2991C8.06262 12.9086 8.88927 13.251 9.75122 13.251C10.6132 13.251 11.4398 12.9086 12.0493 12.2991C12.6588 11.6896 13.0012 10.8629 13.0012 10.001C13.0012 9.13902 12.6588 8.31237 12.0493 7.70288C11.4398 7.09339 10.6132 6.75098 9.75122 6.75098ZM4.33455 10.001C4.33455 8.56439 4.90524 7.18664 5.92106 6.17081C6.93688 5.15499 8.31463 4.58431 9.75122 4.58431C11.1878 4.58431 12.5656 5.15499 13.5814 6.17081C14.5972 7.18664 15.1679 8.56439 15.1679 10.001C15.1679 11.4376 14.5972 12.8153 13.5814 13.8311C12.5656 14.847 11.1878 15.4176 9.75122 15.4176C8.31463 15.4176 6.93688 14.847 5.92106 13.8311C4.90524 12.8153 4.33455 11.4376 4.33455 10.001Z" fill="white"/>
</svg>
